<svg xmlns="http://www.w3.org/2000/svg" viewBox="0 0 10 10" width="10" height="10">
  <path fill="#042159" d="M4.605 7.5h.789V4.474h-.789ZM5 3.573a.418.418 0 1 0-.3-.122.411.411 0 0 0 .3.122ZM5 10a4.871 4.871 0 0 1-1.95-.394A4.993 4.993 0 0 1 .394 6.951 4.867 4.867 0 0 1 0 5a4.871 4.871 0 0 1 .394-1.95A4.993 4.993 0 0 1 3.049.394 4.867 4.867 0 0 1 5 0a4.871 4.871 0 0 1 1.95.394 4.993 4.993 0 0 1 2.656 2.655A4.866 4.866 0 0 1 10 5a4.871 4.871 0 0 1-.394 1.95 4.993 4.993 0 0 1-2.655 2.656A4.866 4.866 0 0 1 5 10Zm0-.789a4.064 4.064 0 0 0 2.987-1.224A4.064 4.064 0 0 0 9.211 5a4.064 4.064 0 0 0-1.224-2.987A4.064 4.064 0 0 0 5 .789a4.064 4.064 0 0 0-2.987 1.224A4.064 4.064 0 0 0 .789 5a4.064 4.064 0 0 0 1.224 2.987A4.064 4.064 0 0 0 5 9.211Z" data-name="Path 1"/>
</svg>
